<svg width="50" height="50" viewBox="0 0 50 50" fill="none" xmlns="http://www.w3.org/2000/svg">
<path d="M5.64062 24.4549L14.9872 15.1101C15.0059 15.0913 15.0247 15.0725 15.0435 15.0537C17.5963 12.5116 21.104 10.8871 24.9917 10.8871C32.2287 10.8871 38.1937 16.3322 39.0117 23.3483L44.3503 18.0107V5.64514H24.9879C14.4808 5.64514 5.92924 14.0176 5.64062 24.4549Z" fill="#4DD3AD"/>
<path d="M44.3427 25.5452L35.0071 34.879L35.0069 34.8788C34.9846 34.9013 34.9623 34.9238 34.9399 34.9462C32.3854 37.5006 28.89 39.1129 24.9917 39.1129C17.7547 39.1129 11.7897 33.6678 10.9717 26.6517L6.59145 31.0311C9.1266 38.7673 16.4063 44.3548 24.9898 44.3548C35.4977 44.3548 44.0519 35.9828 44.3427 25.5452Z" fill="#4DD3AD"/>
<circle cx="24.996" cy="25.0001" r="8.87097" fill="white"/>
</svg>
