<svg width="19" height="18" viewBox="0 0 19 18" fill="none" xmlns="http://www.w3.org/2000/svg">
<path d="M14.96 2C14.9 2.89 14.75 3.76 14.51 4.59L15.71 5.79C16.12 4.59 16.38 3.32 16.47 2H14.96ZM5.1 14.02C4.25 14.26 3.38 14.41 2.5 14.47V15.96C3.82 15.87 5.09 15.61 6.3 15.21L5.1 14.02ZM14 0H17.5C18.05 0 18.5 0.45 18.5 1C18.5 10.39 10.89 18 1.5 18C0.950001 18 0.5 17.55 0.5 17V13.51C0.5 12.96 0.950001 12.51 1.5 12.51C2.74 12.51 3.95 12.31 5.07 11.94C5.17 11.9 5.28 11.89 5.38 11.89C5.64 11.89 5.89 11.99 6.09 12.18L8.29 14.38C11.12 12.93 13.44 10.62 14.88 7.79L12.68 5.59C12.4 5.31 12.32 4.92 12.43 4.57C12.8 3.45 13 2.25 13 1C13 0.45 13.45 0 14 0Z" fill="#3C6AB3"/>
</svg>
