<svg width="40" height="39" viewBox="0 0 40 39" fill="none" xmlns="http://www.w3.org/2000/svg">
<mask id="mask0_1_891" style="mask-type:luminance" maskUnits="userSpaceOnUse" x="3" y="3" width="33" height="33">
<path fill-rule="evenodd" clip-rule="evenodd" d="M3.25293 3.25031H35.6873V35.6687H3.25293V3.25031Z" fill="white"/>
</mask>
<g mask="url(#mask0_1_891)">
<path fill-rule="evenodd" clip-rule="evenodd" d="M12.4342 5.6875C8.33755 5.6875 5.69043 8.49388 5.69043 12.8359V26.0829C5.69043 30.4265 8.33755 33.2313 12.4342 33.2313H26.4904C30.5968 33.2313 33.2504 30.4265 33.2504 26.0829V12.8359C33.2504 8.49388 30.5968 5.6875 26.4904 5.6875H12.4342ZM26.4904 35.6688H12.4342C6.94168 35.6688 3.25293 31.8159 3.25293 26.0829V12.8359C3.25293 7.10288 6.94168 3.25 12.4342 3.25H26.4904C31.9911 3.25 35.6879 7.10288 35.6879 12.8359V26.0829C35.6879 31.8159 31.9911 35.6688 26.4904 35.6688V35.6688Z" fill="#3C6AB3"/>
</g>
<path fill-rule="evenodd" clip-rule="evenodd" d="M8.58448 27.9181C8.28223 27.9181 7.98161 27.8076 7.74598 27.5834C7.25686 27.1219 7.23736 26.3484 7.70048 25.8625L10.1835 23.2414C11.4981 21.8455 13.7162 21.7772 15.1186 23.0935L16.6754 24.673C17.1092 25.1117 17.8145 25.1199 18.25 24.6909C18.4141 24.4975 21.9534 20.1994 21.9534 20.1994C22.6261 19.3836 23.5751 18.8799 24.6297 18.7759C25.686 18.6832 26.7114 18.9904 27.5287 19.6615C27.5986 19.7184 27.662 19.7736 31.2305 23.438C31.7001 23.919 31.692 24.6909 31.2094 25.1605C30.7284 25.6334 29.9549 25.6187 29.4852 25.1377C29.4852 25.1377 26.1556 21.7204 25.9184 21.4896C25.6665 21.2832 25.2619 21.163 24.8637 21.202C24.4591 21.2426 24.0951 21.436 23.8367 21.7496C20.0602 26.3305 20.0147 26.3744 19.953 26.4345C18.5587 27.8027 16.3081 27.78 14.9382 26.3825C14.9382 26.3825 13.427 24.8485 13.401 24.8176C13.0256 24.4699 12.3561 24.4926 11.9547 24.9167L9.46848 27.5379C9.22798 27.7914 8.90623 27.9181 8.58448 27.9181Z" fill="#3C6AB3"/>
<path fill-rule="evenodd" clip-rule="evenodd" d="M13.9082 13.2095C13.0096 13.2095 12.2783 13.9407 12.2783 14.841C12.2783 15.7412 13.0096 16.4741 13.9098 16.4741C14.8101 16.4741 15.5429 15.7412 15.5429 14.841C15.5429 13.9423 14.8101 13.2111 13.9082 13.2095ZM13.9098 18.9116C11.6657 18.9116 9.84082 17.0851 9.84082 14.841C9.84082 12.5968 11.6657 10.772 13.9098 10.772C16.1556 10.7736 17.9804 12.6001 17.9804 14.841C17.9804 17.0851 16.1539 18.9116 13.9098 18.9116Z" fill="#3C6AB3"/>
</svg>
